<?xml version="1.0" encoding="UTF-8" standalone="no"?>
<!-- Created with Inkscape (http://www.inkscape.org/) -->

<svg
   width="200"
   height="200"
   viewBox="0 0 52.916665 52.916666"
   version="1.1"
   id="svg5"
   inkscape:version="1.2 (dc2aedaf03, 2022-05-15)"
   sodipodi:docname="drawing.svg"
   xmlns:inkscape="http://www.inkscape.org/namespaces/inkscape"
   xmlns:sodipodi="http://sodipodi.sourceforge.net/DTD/sodipodi-0.dtd"
   xmlns="http://www.w3.org/2000/svg"
   xmlns:svg="http://www.w3.org/2000/svg">
  <sodipodi:namedview
     id="namedview7"
     pagecolor="#ffffff"
     bordercolor="#000000"
     borderopacity="0.25"
     inkscape:showpageshadow="2"
     inkscape:pageopacity="0.0"
     inkscape:pagecheckerboard="0"
     inkscape:deskcolor="#d1d1d1"
     inkscape:document-units="mm"
     showgrid="false"
     inkscape:zoom="3.6203867"
     inkscape:cx="73.749028"
     inkscape:cy="96.950969"
     inkscape:window-width="1920"
     inkscape:window-height="1009"
     inkscape:window-x="-8"
     inkscape:window-y="-8"
     inkscape:window-maximized="1"
     inkscape:current-layer="layer1" />
  <defs
     id="defs2">
    <inkscape:perspective
       sodipodi:type="inkscape:persp3d"
       inkscape:vp_x="18.987937 : -45.784793 : 1"
       inkscape:vp_y="0 : 999.99996 : 0"
       inkscape:vp_z="-46.648836 : -100.91062 : 1"
       inkscape:persp3d-origin="105 : -145.08333 : 1"
       id="perspective67" />
  </defs>
  <g
     inkscape:label="שכבה 1"
     inkscape:groupmode="layer"
     id="layer1">
    <path
       style="fill:#000000;stroke-width:0.144331"
       id="path290"
       d="M 42.79328,1.8462804 C 40.002823,2.2668158 38.6056,1.0732619 36.074454,2.329138 c -1.211985,0.601351 -3.048306,6.8278343 -4.234183,7.4791584 -3.47788,2.2295636 -4.78235,2.9539466 -8.081817,5.5369076 -2.689299,2.105293 -5.217908,4.160635 -7.03662,7.129391 -2.3898,3.900973 -2.430771,5.312442 -2.771615,9.735781 -0.128719,1.670462 0.140375,3.363537 0.487965,5.002497 0.666606,3.143142 2.081819,6.030252 3.704029,8.767631 0.668985,1.128867 1.469169,2.174637 2.203751,3.261958 l 1.688352,0.736306 v 0 c -0.753794,-1.088467 -1.574424,-2.133561 -2.261372,-3.265395 -1.654133,-2.725395 -3.080092,-5.574886 -3.766621,-8.721127 -0.35485,-1.62621 -0.631605,-3.307072 -0.511225,-4.96719 0.317408,-4.377254 0.351769,-5.795144 2.722831,-9.653063 1.770697,-2.881079 4.397279,-5.049232 7.01648,-7.089821 3.348246,-2.608582 4.588647,-3.257334 8.138746,-5.471227 1.209219,-0.628405 5.821606,1.243259 7.05617,0.666228 2.572184,-1.202233 7.820842,-4.0211947 10.648601,-4.3040251 z"
       sodipodi:nodetypes="cscsssssccsssssscscc" />
    <path
       style="fill:#000000;stroke-width:0.264583"
       d="M 7.3812325,52.69177 0.29232606,45.018211 7.3812325,38.513956 0.07308151,30.98656 7.6004771,24.555388 0.21924453,18.197296 7.8197217,12.350775 0.21924453,6.1388468 6.6504174,0.14616302 13.885487,5.8465208 21.047475,0.14616302 27.917136,6.2850098 35.079125,-1.6106524e-8 31.571214,8.5870776 c 0,0 -8.451357,5.1341204 -13.684513,10.3136284 -10.0968049,9.993297 -2.064554,25.514582 -2.064554,25.514582 z"
       id="path507"
       sodipodi:nodetypes="ccccccccccccccscc" />
    <path
       style="fill:#000000;stroke-width:0.264583"
       d="m 23.459165,49.256938 3.654074,-3.654075 6.869665,7.161988 5.773437,-6.79658 7.235071,7.088906 5.700358,-7.088906 -7.308152,-7.454314 7.30815,-7.600478 -6.869661,-6.138848 7.23507,-6.650416 -9.281351,-6.796581 -3.873321,1.388549 -4.896461,-1.169304 c 0,0 -15.018552,7.796367 -17.978053,17.612643 -2.756603,9.143295 6.431174,20.097416 6.431174,20.097416 z"
       id="path509"
       sodipodi:nodetypes="cccccccccccccsc" />
  </g>
</svg>
