<?xml version="1.0" encoding="UTF-8" standalone="no"?>
<!-- Created with Inkscape (http://www.inkscape.org/) -->

<svg
   width="210mm"
   height="210mm"
   viewBox="0 0 210 210"
   version="1.1"
   id="svg5"
   xmlns="http://www.w3.org/2000/svg"
   xmlns:svg="http://www.w3.org/2000/svg">
  <defs
     id="defs2" />
  <g
     id="layer1"
     style="fill:#000000">
    <path
       style="fill:#00ff00;stroke-width:0.296301"
       d="m 19.824491,181.20504 c 0,0 25.736774,-60.63929 43.330838,-80.6435 29.288435,-33.300557 78.637451,-69.810798 105.919831,-66.199897 27.28238,3.610905 38.51629,18.054518 38.51629,18.054518 0,0 -47.78904,66.589159 -81.04471,89.068949 -31.447332,21.2574 -106.722249,39.71993 -106.722249,39.71993 z"
       id="path513" />
    <path
       style="fill:#000000;stroke-width:0.55266"
       id="path58"
       d="m 202.45486,25.341982 c -10.31078,9.83202 -19.00737,21.217874 -27.77046,32.406675 -10.19991,12.990461 -19.4299,26.759005 -30.09352,39.388413 -7.38599,8.74759 -8.82396,9.76341 -16.94578,17.65971 -12.78334,10.87251 -27.37223,19.39379 -43.064936,25.27988 -3.414841,1.35465 -7.031758,2.21848 -10.404479,3.68692 -0.966654,0.42084 -2.077976,1.0861 -2.994224,1.60862 -4.337229,2.2834 -7.903276,5.65895 -11.836595,8.5725 -3.979231,2.57771 -8.280826,5.4913 -13.185989,5.80343 -3.193246,0.20324 -3.740111,-0.37315 -6.701439,-1.49103 1.187107,0.60093 2.850584,2.92758 3.561322,1.80277 0.714794,-1.13121 -2.109606,-1.65735 -3.054483,-2.60488 -3.208668,-3.21767 -5.319473,-7.10182 -6.912304,-11.29744 -0.135625,-0.75574 -0.32079,-1.50427 -0.406884,-2.26723 -0.156094,-1.38327 -0.06354,-2.37249 0.02415,-3.73417 0.03895,-0.60519 0.199877,-1.85309 0.03553,-2.50686 -0.09149,-0.36395 -0.313643,-0.6819 -0.470465,-1.02284 -4.956794,-5.11159 -9.757533,-5.35148 -15.654049,-7.01884 -0.62856,-0.22474 -1.274033,-0.40681 -1.885672,-0.67419 -0.703867,-0.3077 -2.71296,-1.44016 -2.052749,-1.04746 1.556749,0.92601 3.073482,1.95028 4.744741,2.64875 0.833086,0.34815 -1.491617,-1.02076 -2.197228,-1.58409 -1.787579,-1.42715 -1.977341,-1.76936 -3.457058,-3.41799 -2.379154,-3.12117 -3.1849535,-6.78148 -1.8165421,-10.52413 0.2899971,-0.79315 0.7103161,-1.53242 1.0654781,-2.29863 1.935049,-3.58703 4.659581,-6.7694 8.051054,-9.06699 2.172464,-1.47173 3.83183,-2.13724 6.183908,-3.23652 5.17171,-1.95788 10.752099,-3.49801 15.113284,-7.08442 1.253819,-1.03108 2.318051,-2.27317 3.477078,-3.40976 3.562868,-4.500512 6.674553,-9.511064 8.022304,-15.170037 1.199948,-5.038483 0.710982,-9.82793 0.0188,-14.850636 -0.352253,-0.943051 -0.607003,-1.928524 -1.056802,-2.829127 -1.687097,-3.378011 -6.74403,-5.190664 -9.325016,-6.425474 -0.79279,-0.379303 -1.739091,0.870317 -1.934646,1.336388 -0.189328,0.451221 -0.170257,0.963768 -0.255398,1.445653 1.194943,5.39222 5.301551,9.320375 9.238507,12.896066 7.391459,5.210771 15.550633,10.181949 24.655424,11.569025 1.200701,0.182984 2.418633,0.225534 3.627935,0.338278 7.403329,0.577767 14.742902,1.953777 21.735961,4.494334 1.372547,0.498628 3.956742,3.159354 4.037072,1.701271 0.0835,-1.514472 -2.675052,-1.430589 -4.012581,-2.145889 0.522435,0.604007 1.177857,1.114829 1.567291,1.812043 1.16795,2.090914 0.0761,4.458535 -0.587889,6.477305 0,0 7.098489,3.91202 7.098489,3.91202 v 0 c 0.76398,-2.22384 1.99367,-4.82591 0.94337,-7.20122 -0.35126,-0.794352 -1.02603,-1.401686 -1.53902,-2.102542 -3.23156,-1.884885 -6.387343,-3.906013 -9.69464,-5.654673 -1.269595,-0.671277 -2.647055,-1.120755 -4.004852,-1.588632 -7.099633,-2.446361 -14.504771,-3.743362 -21.961489,-4.471076 -3.805464,-0.448943 -6.839956,-0.963349 -10.467308,-2.307366 -1.289328,-0.477725 -2.592128,-2.261545 -3.800054,-1.604663 -1.077818,0.58613 3.907397,2.908786 3.09893,1.985955 -0.865114,-0.987491 -2.183581,-1.458222 -3.275328,-2.187338 -3.863659,-3.420084 -7.688973,-7.067279 -9.373479,-12.094288 0.0226,-0.403832 -0.14045,-1.309842 0.488573,-1.525676 0.263349,-0.09045 1.060355,0.217359 0.833377,0.05619 -12.686892,-9.0128 -5.431558,-3.72141 -4.411387,-2.087663 0.525838,0.842096 0.831696,1.802982 1.247546,2.704484 0.828468,4.945498 1.449155,9.570125 0.302221,14.583958 -1.272504,5.562785 -4.360868,10.452899 -7.924119,14.802933 -1.153449,1.080547 -2.217286,2.265537 -3.460349,3.241697 -4.41833,3.46964 -10.019422,4.84903 -15.108292,6.96518 -2.328076,1.13154 -4.132913,1.905 -6.287788,3.38851 -3.4696677,2.38863 -6.2927011,5.66676 -8.3065193,9.34377 -0.3817323,0.80336 -0.8282867,1.57897 -1.1452048,2.41002 -1.4898634,3.90688 -0.9215916,7.83462 1.4601755,11.24108 0.5101545,0.60554 0.9843206,1.24333 1.5304636,1.81662 0.9784782,1.02712 2.8525959,2.68511 4.0523645,3.42585 4.2553495,2.62719 8.4332195,5.47089 13.2247945,6.97334 1.665356,0.45613 3.367112,0.79273 5.027582,1.25747 0.500604,0.14017 1.907032,0.78758 1.480347,0.49065 -2.769592,-1.92738 -8.373596,-4.86034 -4.891399,-3.02349 0.213681,0.22316 0.507843,0.39071 0.641035,0.66947 0.274661,0.57491 0.115701,1.91307 0.08785,2.4182 -0.117578,2.13101 -0.214283,4.24591 0.316558,6.34456 0.313412,0.85972 0.570013,1.74235 0.940237,2.57918 1.445663,3.26768 3.485183,6.52829 5.935424,9.13409 3.951354,4.2022 7.566366,5.40789 13.17105,8.71004 1.170451,0.36482 2.301793,0.89441 3.51135,1.0945 6.197402,1.02516 11.915949,-2.87938 16.82935,-6.03288 3.92181,-2.87623 7.614793,-6.11957 11.940911,-8.38887 4.137739,-2.3121 8.680759,-3.67134 13.092974,-5.36142 15.482285,-6.30796 29.835285,-15.13431 42.602755,-25.93526 8.1406,-7.98053 9.51633,-8.95869 16.94787,-17.76284 10.66857,-12.63899 19.88564,-26.411711 30.20117,-39.325786 8.89146,-11.086568 17.73059,-22.477417 28.57669,-31.750436 0,0 -7.01448,-4.36298 -7.01448,-4.36298 z" />
  </g>
</svg>
